<svg fill="#0E4194" class="logo" width="99px" height="51px" viewBox="0 0 99 51" xmlns="http://www.w3.org/2000/svg">
  <path d="M36.1932327,13.3456848 L42.8920881,13.3456848 L38.1525817,8.63389461 C37.0405187,7.5283349 37.014041,5.76470393 38.0731486,4.71178993 C39.1322562,3.65887592 40.9062614,3.68519877 42.0183244,4.79075848 L49.4850328,12.2138022 L56.9517413,4.79075848 C58.0638043,3.68519877 59.8378095,3.65887592 60.8969171,4.71178993 C61.9560246,5.76470393 61.929547,7.5283349 60.817484,8.63389461 L56.0779776,13.3456848 L62.776833,13.3456848 C64.3390167,13.3456848 65.6364235,14.5565359 65.6364235,16.0569384 C65.6364235,17.5573408 64.3654944,18.7681919 62.776833,18.7681919 L56.0779776,18.7681919 L60.817484,23.4799821 C61.929547,24.5855418 61.9560246,26.3491728 60.8969171,27.4020868 C59.8378095,28.4550008 58.0638043,28.428678 56.9517413,27.3231183 L52.2122349,22.6113281 L52.2122349,29.2710092 C52.2122349,30.8240573 50.9942612,32.113877 49.4850328,32.113877 C47.9758045,32.113877 46.7578308,30.8503802 46.7578308,29.2710092 L46.7578308,22.6113281 L42.0183244,27.3231183 C40.9062614,28.428678 39.1322562,28.4550008 38.0731486,27.4020868 C37.014041,26.3491728 37.0405187,24.5855418 38.1525817,23.4799821 L42.8920881,18.7681919 L36.1932327,18.7681919 C34.631049,18.7681919 33.3336422,17.5573408 33.3336422,16.0569384 C33.3601199,14.5565359 34.631049,13.3456848 36.1932327,13.3456848 Z M49.4850328,0 C51.4179042,0 53.0065656,1.55304811 53.0065656,3.50093897 C53.0065656,5.42250697 51.4443819,7.00187794 49.4850328,7.00187794 C47.5521615,7.00187794 45.9635001,5.44882982 45.9635001,3.50093897 C45.9635001,1.57937096 47.5521615,0 49.4850328,0 Z M22.2659698,45.9860192 L23.8281535,45.9860192 C25.9463688,45.8807278 26.952521,43.9854827 26.952521,42.4587574 C26.8995657,40.958355 25.8934134,39.3526612 23.7751981,39.3000155 L22.2659698,39.3000155 L22.2659698,45.9860192 Z M20.015366,34.877777 L23.8016755,34.877777 C29.3355125,34.8251313 32.0627144,39.1947242 31.9832813,42.9062458 C31.9038483,47.3284844 28.1969718,50.5925177 23.7751978,50.5925177 L20.3595759,50.5925177 C18.2413608,50.5661948 17.1822533,49.7238636 17.1822533,47.7759728 L17.1822533,37.4574162 C17.208731,35.5095254 18.6385262,34.877777 20.015366,34.877777 Z M7.83562843,42.9325657 L4.76421631,49.1710807 C4.18170712,50.3819317 2.67247875,50.9083887 1.42802729,50.329286 C0.183575827,49.7501834 -0.345977986,48.2761039 0.236531209,47.0652529 L5.53206934,36.2465622 C5.84980163,35.6148139 6.37935545,35.1936483 7.01482002,34.9830655 C7.25311924,34.904097 7.51789615,34.8777741 7.75619536,34.8514513 L7.78267305,34.8514513 C8.04744996,34.8514513 8.31222687,34.904097 8.57700377,34.9830655 L8.60348146,34.9830655 C9.21246835,35.1936483 9.74202216,35.6148139 10.0332768,36.2202394 L15.4347257,47.03893 C16.0437125,48.249781 15.5141587,49.7238605 14.2697073,50.3029632 C13.0252558,50.8820659 11.5160274,50.3819317 10.9070406,49.1710807 L7.83562843,42.9325657 Z M40.1913638,42.9325685 L37.1199517,49.1974063 C36.5374425,50.4082574 35.0282141,50.9347143 33.7837627,50.3556117 C32.5393112,49.776509 32.0097574,48.3024295 32.5922666,47.0915785 L37.8878047,36.2728879 C38.205537,35.6411395 38.7350908,35.2199739 39.3705554,35.0093911 C39.6088546,34.9304226 39.8736315,34.9040997 40.1119308,34.8777769 L40.1384084,34.8777769 C40.4031854,34.8777769 40.6679623,34.9304226 40.9327392,35.0093911 L40.9592169,35.0093911 C41.5682037,35.2199739 42.0977576,35.6411395 42.3890122,36.246565 L47.7904611,47.0652556 C48.3994479,48.2761067 47.8698941,49.7501862 46.6254427,50.3292888 C45.3809912,50.9083915 43.8717628,50.4082574 43.2627759,49.1974063 L40.1913638,42.9325685 Z M58.884615,42.0902366 L61.5059063,36.6150836 C62.1678485,35.2726182 63.0680899,34.8514526 63.9948091,34.8514526 C65.451082,34.8251298 66.3248457,35.7201067 66.6161003,37.3784463 L68.2312393,47.4074524 C68.8402262,51.0663287 63.8888983,51.8296914 63.3858222,48.2497837 L62.9092238,44.9594273 L61.4529509,48.4866893 C61.0028302,49.6185719 60.1555441,50.5661945 58.884615,50.5661945 C57.5872083,50.5661945 56.7663999,49.6185719 56.3162792,48.4866893 L54.8600063,44.9594273 L54.3834079,48.2497837 C53.8803318,51.8296914 48.9290039,51.0663287 49.5379908,47.4074524 L51.1531298,37.3784463 C51.4443844,35.7201067 52.3446258,34.8514526 53.774421,34.8514526 C54.7276178,34.8514526 55.6013816,35.2726182 56.2633238,36.6150836 L58.884615,42.0902366 Z M75.8038565,40.7740951 L78.2398039,40.7740951 C79.4048223,40.7740951 80.3315414,41.5901035 80.3315414,42.564049 C80.3315414,43.5643173 79.3783446,44.3540028 78.2398039,44.3540028 L75.8038565,44.3540028 C75.8038565,44.8541369 75.8038565,45.1436883 75.8038565,45.6438224 L79.1135677,45.6438224 C82.3968012,45.6438224 82.158502,50.5925182 79.1135677,50.5398725 L74.3740613,50.5398725 C72.0440247,50.5398725 70.7466179,49.4869585 70.7466179,46.9862878 C70.7466179,43.95916 70.7466179,41.3531978 70.7466179,38.3260701 C70.7466179,35.8253993 72.0440247,34.7724853 74.3740613,34.7724853 L79.1135677,34.7724853 C82.158502,34.7198396 82.4232789,39.6685354 79.1135677,39.6685354 L75.8038565,39.6685354 L75.8038565,40.7740951 Z M89.254521,45.9860192 L90.8167048,45.9860192 C92.93492,45.8807278 93.9410723,43.9854827 93.9410723,42.4587574 C93.8881169,40.958355 92.8819646,39.3526612 90.7637494,39.3000155 L89.254521,39.3000155 L89.254521,45.9860192 Z M87.0303951,34.877777 L90.8167046,34.877777 C96.3505416,34.8251313 99.0777436,39.1947242 98.9983105,42.9062458 C98.9188774,47.3284844 95.212001,50.5925177 90.7902269,50.5925177 L87.3746051,50.5925177 C85.25639,50.5661948 84.1972824,49.7238636 84.1972824,47.7759728 L84.1972824,37.4574162 C84.2237601,35.5095254 85.6535553,34.877777 87.0303951,34.877777 Z"></path>
</svg>
