<svg width="450px" height="450px" viewBox="0 0 450 450" xmlns="http://www.w3.org/2000/svg" >
  <path fill="#010830" d="M133.155738,187.021655 L67.1311475,121.000444 C51.6393443,105.509433 51.2704918,80.7975829 66.0245902,66.0442396 C80.7786885,51.2908963 105.491803,51.6597298 120.983607,67.1507403 L225,171.161811 L329.016393,67.1507403 C344.508197,51.6597298 369.221311,51.2908963 383.97541,66.0442396 C398.729508,80.7975829 398.360656,105.509433 382.868852,121.000444 L316.844262,187.021655 L410.163934,187.021655 C431.92623,187.021655 450,203.988 450,225.011514 C450,246.035028 432.295082,263.001373 410.163934,263.001373 L316.844262,263.001373 L382.868852,329.022585 C398.360656,344.513595 398.729508,369.225445 383.97541,383.978789 C369.221311,398.732132 344.508197,398.363298 329.016393,382.872288 L262.991803,316.851076 L262.991803,410.165973 C262.991803,431.927154 246.02459,450 225,450 C203.97541,450 187.008197,432.295988 187.008197,410.165973 L187.008197,316.851076 L120.983607,382.872288 C105.491803,398.363298 80.7786885,398.732132 66.0245902,383.978789 C51.2704918,369.225445 51.6393443,344.513595 67.1311475,329.022585 L133.155738,263.001373 L39.8360656,263.001373 C18.0737705,263.001373 0,246.035028 0,225.011514 C0.368852459,203.988 18.0737705,187.021655 39.8360656,187.021655 L133.155738,187.021655 Z M273.982301,49.2437722 C273.982301,76.2723089 252.25331,98.4875445 225,98.4875445 C198.114978,98.4875445 176.017699,76.6425628 176.017699,49.2437722 C176.017699,22.2152356 198.114978,0 225,0 C251.885022,0 273.982301,21.8449817 273.982301,49.2437722 Z"></path>
</svg>
